<svg xmlns="http://www.w3.org/2000/svg" version="1.1" xmlns:xlink="http://www.w3.org/1999/xlink" xmlns:svgjs="http://svgjs.com/svgjs" width="1440" height="560" preserveAspectRatio="none" viewBox="0 0 1440 560"><g mask="url(&quot;#SvgjsMask1579&quot;)" fill="none"><rect width="1440" height="560" x="0" y="0" fill="url(#SvgjsLinearGradient1580)"></rect><g mask="url(&quot;#SvgjsMask1581&quot;)"><path d="M1350.5 425.5L1276.5 425.5L943.5 92.5L906.5 92.5L832.5 18.5L647.5 18.5" stroke-width="6.17" stroke="rgba(107, 144, 128, 1)"></path><path d="M1341.25 425.5 a9.25 9.25 0 1 0 18.5 0 a9.25 9.25 0 1 0 -18.5 0zM638.25 18.5 a9.25 9.25 0 1 0 18.5 0 a9.25 9.25 0 1 0 -18.5 0z" fill="rgba(107, 144, 128, 1)"></path><path d="M1350.5 55.5L1424.5 129.5L1424.5 573.5" stroke-width="6.17" stroke="rgba(107, 144, 128, 1)"></path><path d="M1341.25 55.5 a9.25 9.25 0 1 0 18.5 0 a9.25 9.25 0 1 0 -18.5 0zM1415.25 573.5 a9.25 9.25 0 1 0 18.5 0 a9.25 9.25 0 1 0 -18.5 0z" fill="rgba(107, 144, 128, 1)"></path><path d="M462.5 462.5L462.5 573.5" stroke-width="6.17" stroke="rgba(107, 144, 128, 1)"></path><path d="M453.25 462.5 a9.25 9.25 0 1 0 18.5 0 a9.25 9.25 0 1 0 -18.5 0zM453.25 573.5 a9.25 9.25 0 1 0 18.5 0 a9.25 9.25 0 1 0 -18.5 0z" fill="rgba(107, 144, 128, 1)"></path><path d="M610.5 499.5L1313.5 499.5" stroke-width="6.17" stroke="rgba(107, 144, 128, 1)"></path><path d="M601.25 499.5 a9.25 9.25 0 1 0 18.5 0 a9.25 9.25 0 1 0 -18.5 0zM1304.25 499.5 a9.25 9.25 0 1 0 18.5 0 a9.25 9.25 0 1 0 -18.5 0z" fill="rgba(107, 144, 128, 1)"></path><path d="M240.5 240.5L388.5 92.5L647.5 92.5L684.5 55.5L758.5 55.5L943.5 240.5" stroke-width="6.17" stroke="rgba(107, 144, 128, 1)"></path><path d="M231.25 240.5 a9.25 9.25 0 1 0 18.5 0 a9.25 9.25 0 1 0 -18.5 0zM934.25 240.5 a9.25 9.25 0 1 0 18.5 0 a9.25 9.25 0 1 0 -18.5 0z" fill="rgba(107, 144, 128, 1)"></path><path d="M166.5 129.5L166.5 573.5" stroke-width="6.17" stroke="rgba(107, 144, 128, 1)"></path><path d="M157.25 129.5 a9.25 9.25 0 1 0 18.5 0 a9.25 9.25 0 1 0 -18.5 0zM157.25 573.5 a9.25 9.25 0 1 0 18.5 0 a9.25 9.25 0 1 0 -18.5 0z" fill="rgba(107, 144, 128, 1)"></path><path d="M92.5 425.5L18.5 499.5L18.5 573.5" stroke-width="6.17" stroke="rgba(107, 144, 128, 1)"></path><path d="M83.25 425.5 a9.25 9.25 0 1 0 18.5 0 a9.25 9.25 0 1 0 -18.5 0zM9.25 573.5 a9.25 9.25 0 1 0 18.5 0 a9.25 9.25 0 1 0 -18.5 0z" fill="rgba(107, 144, 128, 1)"></path><path d="M1239.5 277.5L1239.5 314.5L1313.5 388.5L1387.5 388.5" stroke-width="6.17" stroke="rgba(107, 144, 128, 1)"></path><path d="M1230.25 277.5 a9.25 9.25 0 1 0 18.5 0 a9.25 9.25 0 1 0 -18.5 0zM1378.25 388.5 a9.25 9.25 0 1 0 18.5 0 a9.25 9.25 0 1 0 -18.5 0z" fill="rgba(107, 144, 128, 1)"></path><path d="M869.5 425.5L1017.5 277.5L1017.5 203.5L943.5 129.5L869.5 129.5L795.5 55.5" stroke-width="6.17" stroke="rgba(107, 144, 128, 1)"></path><path d="M860.25 425.5 a9.25 9.25 0 1 0 18.5 0 a9.25 9.25 0 1 0 -18.5 0zM786.25 55.5 a9.25 9.25 0 1 0 18.5 0 a9.25 9.25 0 1 0 -18.5 0z" fill="rgba(107, 144, 128, 1)"></path><path d="M980.5 425.5L906.5 425.5L869.5 462.5L499.5 462.5L425.5 388.5L425.5 240.5" stroke-width="6.17" stroke="rgba(107, 144, 128, 1)"></path><path d="M971.25 425.5 a9.25 9.25 0 1 0 18.5 0 a9.25 9.25 0 1 0 -18.5 0zM416.25 240.5 a9.25 9.25 0 1 0 18.5 0 a9.25 9.25 0 1 0 -18.5 0z" fill="rgba(107, 144, 128, 1)"></path><path d="M573.5 388.5L869.5 388.5L943.5 314.5L943.5 277.5L758.5 92.5L684.5 92.5L647.5 129.5" stroke-width="6.17" stroke="rgba(107, 144, 128, 1)"></path><path d="M564.25 388.5 a9.25 9.25 0 1 0 18.5 0 a9.25 9.25 0 1 0 -18.5 0zM638.25 129.5 a9.25 9.25 0 1 0 18.5 0 a9.25 9.25 0 1 0 -18.5 0z" fill="rgba(107, 144, 128, 1)"></path><path d="M388.5 536.5L351.5 573.5L277.5 573.5L203.5 499.5L203.5 18.5" stroke-width="6.17" stroke="rgba(107, 144, 128, 1)"></path><path d="M379.25 536.5 a9.25 9.25 0 1 0 18.5 0 a9.25 9.25 0 1 0 -18.5 0zM194.25 18.5 a9.25 9.25 0 1 0 18.5 0 a9.25 9.25 0 1 0 -18.5 0z" fill="rgba(107, 144, 128, 1)"></path><path d="M314.5 536.5L314.5 462.5L388.5 388.5L388.5 166.5" stroke-width="6.17" stroke="rgba(107, 144, 128, 1)"></path><path d="M305.25 536.5 a9.25 9.25 0 1 0 18.5 0 a9.25 9.25 0 1 0 -18.5 0zM379.25 166.5 a9.25 9.25 0 1 0 18.5 0 a9.25 9.25 0 1 0 -18.5 0z" fill="rgba(107, 144, 128, 1)"></path><path d="M1054.5 536.5L1128.5 536.5L1165.5 573.5L1313.5 573.5L1387.5 499.5L1387.5 425.5" stroke-width="6.17" stroke="rgba(107, 144, 128, 1)"></path><path d="M1045.25 536.5 a9.25 9.25 0 1 0 18.5 0 a9.25 9.25 0 1 0 -18.5 0zM1378.25 425.5 a9.25 9.25 0 1 0 18.5 0 a9.25 9.25 0 1 0 -18.5 0z" fill="rgba(107, 144, 128, 1)"></path><path d="M684.5 536.5L647.5 573.5L499.5 573.5" stroke-width="6.17" stroke="rgba(107, 144, 128, 1)"></path><path d="M675.25 536.5 a9.25 9.25 0 1 0 18.5 0 a9.25 9.25 0 1 0 -18.5 0zM490.25 573.5 a9.25 9.25 0 1 0 18.5 0 a9.25 9.25 0 1 0 -18.5 0z" fill="rgba(107, 144, 128, 1)"></path><path d="M462.5 18.5L499.5 18.5L536.5 55.5" stroke-width="6.17" stroke="rgba(107, 144, 128, 1)"></path><path d="M453.25 18.5 a9.25 9.25 0 1 0 18.5 0 a9.25 9.25 0 1 0 -18.5 0zM527.25 55.5 a9.25 9.25 0 1 0 18.5 0 a9.25 9.25 0 1 0 -18.5 0z" fill="rgba(107, 144, 128, 1)"></path><path d="M1165.5 166.5L1054.5 166.5L1017.5 129.5L1017.5 18.5" stroke-width="6.17" stroke="rgba(107, 144, 128, 1)"></path><path d="M1156.25 166.5 a9.25 9.25 0 1 0 18.5 0 a9.25 9.25 0 1 0 -18.5 0zM1008.25 18.5 a9.25 9.25 0 1 0 18.5 0 a9.25 9.25 0 1 0 -18.5 0z" fill="rgba(107, 144, 128, 1)"></path><path d="M1091.5 314.5L1017.5 388.5L943.5 388.5" stroke-width="6.17" stroke="rgba(107, 144, 128, 1)"></path><path d="M1082.25 314.5 a9.25 9.25 0 1 0 18.5 0 a9.25 9.25 0 1 0 -18.5 0zM934.25 388.5 a9.25 9.25 0 1 0 18.5 0 a9.25 9.25 0 1 0 -18.5 0z" fill="rgba(107, 144, 128, 1)"></path><path d="M795.5 573.5L832.5 536.5L1017.5 536.5L1054.5 573.5L1128.5 573.5" stroke-width="6.17" stroke="rgba(107, 144, 128, 1)"></path><path d="M786.25 573.5 a9.25 9.25 0 1 0 18.5 0 a9.25 9.25 0 1 0 -18.5 0zM1119.25 573.5 a9.25 9.25 0 1 0 18.5 0 a9.25 9.25 0 1 0 -18.5 0z" fill="rgba(107, 144, 128, 1)"></path><path d="M610.5 203.5L610.5 129.5" stroke-width="6.17" stroke="rgba(107, 144, 128, 1)"></path><path d="M601.25 203.5 a9.25 9.25 0 1 0 18.5 0 a9.25 9.25 0 1 0 -18.5 0zM601.25 129.5 a9.25 9.25 0 1 0 18.5 0 a9.25 9.25 0 1 0 -18.5 0z" fill="rgba(107, 144, 128, 1)"></path><path d="M18.5 351.5L55.5 388.5L129.5 388.5" stroke-width="6.17" stroke="rgba(107, 144, 128, 1)"></path><path d="M9.25 351.5 a9.25 9.25 0 1 0 18.5 0 a9.25 9.25 0 1 0 -18.5 0zM120.25 388.5 a9.25 9.25 0 1 0 18.5 0 a9.25 9.25 0 1 0 -18.5 0z" fill="rgba(107, 144, 128, 1)"></path><path d="M1350.5 166.5L1202.5 18.5L1054.5 18.5" stroke-width="6.17" stroke="rgba(107, 144, 128, 1)"></path><path d="M1341.25 166.5 a9.25 9.25 0 1 0 18.5 0 a9.25 9.25 0 1 0 -18.5 0zM1045.25 18.5 a9.25 9.25 0 1 0 18.5 0 a9.25 9.25 0 1 0 -18.5 0z" fill="rgba(107, 144, 128, 1)"></path><path d="M1128.5 92.5L1165.5 55.5L1202.5 55.5L1350.5 203.5L1387.5 203.5" stroke-width="6.17" stroke="rgba(107, 144, 128, 1)"></path><path d="M1119.25 92.5 a9.25 9.25 0 1 0 18.5 0 a9.25 9.25 0 1 0 -18.5 0zM1378.25 203.5 a9.25 9.25 0 1 0 18.5 0 a9.25 9.25 0 1 0 -18.5 0z" fill="rgba(107, 144, 128, 1)"></path><path d="M240.5 425.5L314.5 351.5L351.5 351.5" stroke-width="6.17" stroke="rgba(107, 144, 128, 1)"></path><path d="M231.25 425.5 a9.25 9.25 0 1 0 18.5 0 a9.25 9.25 0 1 0 -18.5 0zM342.25 351.5 a9.25 9.25 0 1 0 18.5 0 a9.25 9.25 0 1 0 -18.5 0z" fill="rgba(107, 144, 128, 1)"></path><path d="M536.5 203.5L462.5 129.5" stroke-width="6.17" stroke="rgba(107, 144, 128, 1)"></path><path d="M527.25 203.5 a9.25 9.25 0 1 0 18.5 0 a9.25 9.25 0 1 0 -18.5 0zM453.25 129.5 a9.25 9.25 0 1 0 18.5 0 a9.25 9.25 0 1 0 -18.5 0z" fill="rgba(107, 144, 128, 1)"></path><path d="M55.5 536.5L55.5 499.5L129.5 425.5" stroke-width="6.17" stroke="rgba(107, 144, 128, 1)"></path><path d="M46.25 536.5 a9.25 9.25 0 1 0 18.5 0 a9.25 9.25 0 1 0 -18.5 0zM120.25 425.5 a9.25 9.25 0 1 0 18.5 0 a9.25 9.25 0 1 0 -18.5 0z" fill="rgba(107, 144, 128, 1)"></path><path d="M129.5 277.5L129.5 18.5" stroke-width="6.17" stroke="rgba(107, 144, 128, 1)"></path><path d="M120.25 277.5 a9.25 9.25 0 1 0 18.5 0 a9.25 9.25 0 1 0 -18.5 0zM120.25 18.5 a9.25 9.25 0 1 0 18.5 0 a9.25 9.25 0 1 0 -18.5 0z" fill="rgba(107, 144, 128, 1)"></path><path d="M1387.5 277.5L1202.5 92.5L1165.5 92.5L1128.5 129.5L1091.5 129.5L1054.5 92.5L1054.5 55.5" stroke-width="6.17" stroke="rgba(107, 144, 128, 1)"></path><path d="M1378.25 277.5 a9.25 9.25 0 1 0 18.5 0 a9.25 9.25 0 1 0 -18.5 0zM1045.25 55.5 a9.25 9.25 0 1 0 18.5 0 a9.25 9.25 0 1 0 -18.5 0z" fill="rgba(107, 144, 128, 1)"></path><path d="M758.5 203.5L869.5 314.5L869.5 351.5" stroke-width="6.17" stroke="rgba(107, 144, 128, 1)"></path><path d="M749.25 203.5 a9.25 9.25 0 1 0 18.5 0 a9.25 9.25 0 1 0 -18.5 0zM860.25 351.5 a9.25 9.25 0 1 0 18.5 0 a9.25 9.25 0 1 0 -18.5 0z" fill="rgba(107, 144, 128, 1)"></path><path d="M1165.5 425.5L1165.5 351.5L1128.5 314.5" stroke-width="6.17" stroke="rgba(107, 144, 128, 1)"></path><path d="M1156.25 425.5 a9.25 9.25 0 1 0 18.5 0 a9.25 9.25 0 1 0 -18.5 0zM1119.25 314.5 a9.25 9.25 0 1 0 18.5 0 a9.25 9.25 0 1 0 -18.5 0z" fill="rgba(107, 144, 128, 1)"></path><path d="M499.5 425.5L462.5 388.5L462.5 240.5L425.5 203.5" stroke-width="6.17" stroke="rgba(107, 144, 128, 1)"></path><path d="M490.25 425.5 a9.25 9.25 0 1 0 18.5 0 a9.25 9.25 0 1 0 -18.5 0zM416.25 203.5 a9.25 9.25 0 1 0 18.5 0 a9.25 9.25 0 1 0 -18.5 0z" fill="rgba(107, 144, 128, 1)"></path><path d="M499.5 314.5L573.5 240.5L758.5 240.5L832.5 314.5L832.5 351.5" stroke-width="6.17" stroke="rgba(107, 144, 128, 1)"></path><path d="M490.25 314.5 a9.25 9.25 0 1 0 18.5 0 a9.25 9.25 0 1 0 -18.5 0zM823.25 351.5 a9.25 9.25 0 1 0 18.5 0 a9.25 9.25 0 1 0 -18.5 0z" fill="rgba(107, 144, 128, 1)"></path><path d="M610.5 55.5L573.5 18.5L536.5 18.5" stroke-width="6.17" stroke="rgba(107, 144, 128, 1)"></path><path d="M601.25 55.5 a9.25 9.25 0 1 0 18.5 0 a9.25 9.25 0 1 0 -18.5 0zM527.25 18.5 a9.25 9.25 0 1 0 18.5 0 a9.25 9.25 0 1 0 -18.5 0z" fill="rgba(107, 144, 128, 1)"></path><path d="M425.5 462.5L351.5 536.5" stroke-width="6.17" stroke="rgba(107, 144, 128, 1)"></path><path d="M416.25 462.5 a9.25 9.25 0 1 0 18.5 0 a9.25 9.25 0 1 0 -18.5 0zM342.25 536.5 a9.25 9.25 0 1 0 18.5 0 a9.25 9.25 0 1 0 -18.5 0z" fill="rgba(107, 144, 128, 1)"></path><path d="M55.5 573.5L129.5 499.5L129.5 462.5" stroke-width="6.17" stroke="rgba(107, 144, 128, 1)"></path><path d="M46.25 573.5 a9.25 9.25 0 1 0 18.5 0 a9.25 9.25 0 1 0 -18.5 0zM120.25 462.5 a9.25 9.25 0 1 0 18.5 0 a9.25 9.25 0 1 0 -18.5 0z" fill="rgba(107, 144, 128, 1)"></path><path d="M499.5 499.5L536.5 536.5L647.5 536.5" stroke-width="6.17" stroke="rgba(107, 144, 128, 1)"></path><path d="M490.25 499.5 a9.25 9.25 0 1 0 18.5 0 a9.25 9.25 0 1 0 -18.5 0zM638.25 536.5 a9.25 9.25 0 1 0 18.5 0 a9.25 9.25 0 1 0 -18.5 0z" fill="rgba(107, 144, 128, 1)"></path><path d="M1091.5 203.5L1276.5 203.5L1387.5 314.5L1387.5 351.5" stroke-width="6.17" stroke="rgba(107, 144, 128, 1)"></path><path d="M1082.25 203.5 a9.25 9.25 0 1 0 18.5 0 a9.25 9.25 0 1 0 -18.5 0zM1378.25 351.5 a9.25 9.25 0 1 0 18.5 0 a9.25 9.25 0 1 0 -18.5 0z" fill="rgba(107, 144, 128, 1)"></path><path d="M573.5 425.5L832.5 425.5" stroke-width="6.17" stroke="rgba(107, 144, 128, 1)"></path><path d="M564.25 425.5 a9.25 9.25 0 1 0 18.5 0 a9.25 9.25 0 1 0 -18.5 0zM823.25 425.5 a9.25 9.25 0 1 0 18.5 0 a9.25 9.25 0 1 0 -18.5 0z" fill="rgba(107, 144, 128, 1)"></path><path d="M906.5 462.5L1350.5 462.5" stroke-width="6.17" stroke="rgba(107, 144, 128, 1)"></path><path d="M897.25 462.5 a9.25 9.25 0 1 0 18.5 0 a9.25 9.25 0 1 0 -18.5 0zM1341.25 462.5 a9.25 9.25 0 1 0 18.5 0 a9.25 9.25 0 1 0 -18.5 0z" fill="rgba(107, 144, 128, 1)"></path><path d="M1017.5 573.5L832.5 573.5" stroke-width="6.17" stroke="rgba(107, 144, 128, 1)"></path><path d="M1008.25 573.5 a9.25 9.25 0 1 0 18.5 0 a9.25 9.25 0 1 0 -18.5 0zM823.25 573.5 a9.25 9.25 0 1 0 18.5 0 a9.25 9.25 0 1 0 -18.5 0z" fill="rgba(107, 144, 128, 1)"></path><path d="M647.5 351.5L795.5 351.5" stroke-width="6.17" stroke="rgba(107, 144, 128, 1)"></path><path d="M638.25 351.5 a9.25 9.25 0 1 0 18.5 0 a9.25 9.25 0 1 0 -18.5 0zM786.25 351.5 a9.25 9.25 0 1 0 18.5 0 a9.25 9.25 0 1 0 -18.5 0z" fill="rgba(107, 144, 128, 1)"></path><path d="M1313.5 55.5L1387.5 129.5L1387.5 166.5" stroke-width="6.17" stroke="rgba(107, 144, 128, 1)"></path><path d="M1304.25 55.5 a9.25 9.25 0 1 0 18.5 0 a9.25 9.25 0 1 0 -18.5 0zM1378.25 166.5 a9.25 9.25 0 1 0 18.5 0 a9.25 9.25 0 1 0 -18.5 0z" fill="rgba(107, 144, 128, 1)"></path><path d="M1387.5 18.5L1239.5 18.5" stroke-width="6.17" stroke="rgba(107, 144, 128, 1)"></path><path d="M1378.25 18.5 a9.25 9.25 0 1 0 18.5 0 a9.25 9.25 0 1 0 -18.5 0zM1230.25 18.5 a9.25 9.25 0 1 0 18.5 0 a9.25 9.25 0 1 0 -18.5 0z" fill="rgba(107, 144, 128, 1)"></path><path d="M129.5 314.5L92.5 351.5L55.5 351.5L18.5 314.5L18.5 18.5" stroke-width="6.17" stroke="rgba(107, 144, 128, 1)"></path><path d="M120.25 314.5 a9.25 9.25 0 1 0 18.5 0 a9.25 9.25 0 1 0 -18.5 0zM9.25 18.5 a9.25 9.25 0 1 0 18.5 0 a9.25 9.25 0 1 0 -18.5 0z" fill="rgba(107, 144, 128, 1)"></path><path d="M1017.5 425.5L1091.5 351.5L1128.5 351.5" stroke-width="6.17" stroke="rgba(107, 144, 128, 1)"></path><path d="M1008.25 425.5 a9.25 9.25 0 1 0 18.5 0 a9.25 9.25 0 1 0 -18.5 0zM1119.25 351.5 a9.25 9.25 0 1 0 18.5 0 a9.25 9.25 0 1 0 -18.5 0z" fill="rgba(107, 144, 128, 1)"></path><path d="M240.5 277.5L351.5 277.5" stroke-width="6.17" stroke="rgba(107, 144, 128, 1)"></path><path d="M231.25 277.5 a9.25 9.25 0 1 0 18.5 0 a9.25 9.25 0 1 0 -18.5 0zM342.25 277.5 a9.25 9.25 0 1 0 18.5 0 a9.25 9.25 0 1 0 -18.5 0z" fill="rgba(107, 144, 128, 1)"></path><path d="M1128.5 388.5L1091.5 388.5L1054.5 425.5" stroke-width="6.17" stroke="rgba(107, 144, 128, 1)"></path><path d="M1119.25 388.5 a9.25 9.25 0 1 0 18.5 0 a9.25 9.25 0 1 0 -18.5 0zM1045.25 425.5 a9.25 9.25 0 1 0 18.5 0 a9.25 9.25 0 1 0 -18.5 0z" fill="rgba(107, 144, 128, 1)"></path><path d="M1276.5 240.5L1128.5 240.5" stroke-width="6.17" stroke="rgba(107, 144, 128, 1)"></path><path d="M1267.25 240.5 a9.25 9.25 0 1 0 18.5 0 a9.25 9.25 0 1 0 -18.5 0zM1119.25 240.5 a9.25 9.25 0 1 0 18.5 0 a9.25 9.25 0 1 0 -18.5 0z" fill="rgba(107, 144, 128, 1)"></path><path d="M980.5 18.5L980.5 92.5" stroke-width="6.17" stroke="rgba(107, 144, 128, 1)"></path><path d="M971.25 18.5 a9.25 9.25 0 1 0 18.5 0 a9.25 9.25 0 1 0 -18.5 0zM971.25 92.5 a9.25 9.25 0 1 0 18.5 0 a9.25 9.25 0 1 0 -18.5 0z" fill="rgba(107, 144, 128, 1)"></path><path d="M795.5 314.5L721.5 314.5" stroke-width="6.17" stroke="rgba(107, 144, 128, 1)"></path><path d="M786.25 314.5 a9.25 9.25 0 1 0 18.5 0 a9.25 9.25 0 1 0 -18.5 0zM712.25 314.5 a9.25 9.25 0 1 0 18.5 0 a9.25 9.25 0 1 0 -18.5 0z" fill="rgba(107, 144, 128, 1)"></path><path d="M1350.5 314.5L1313.5 277.5L1276.5 277.5" stroke-width="6.17" stroke="rgba(107, 144, 128, 1)"></path><path d="M1341.25 314.5 a9.25 9.25 0 1 0 18.5 0 a9.25 9.25 0 1 0 -18.5 0zM1267.25 277.5 a9.25 9.25 0 1 0 18.5 0 a9.25 9.25 0 1 0 -18.5 0z" fill="rgba(107, 144, 128, 1)"></path><path d="M351.5 18.5L240.5 129.5L240.5 203.5" stroke-width="6.17" stroke="rgba(107, 144, 128, 1)"></path><path d="M342.25 18.5 a9.25 9.25 0 1 0 18.5 0 a9.25 9.25 0 1 0 -18.5 0zM231.25 203.5 a9.25 9.25 0 1 0 18.5 0 a9.25 9.25 0 1 0 -18.5 0z" fill="rgba(107, 144, 128, 1)"></path><path d="M92.5 166.5L92.5 18.5" stroke-width="6.17" stroke="rgba(107, 144, 128, 1)"></path><path d="M83.25 166.5 a9.25 9.25 0 1 0 18.5 0 a9.25 9.25 0 1 0 -18.5 0zM83.25 18.5 a9.25 9.25 0 1 0 18.5 0 a9.25 9.25 0 1 0 -18.5 0z" fill="rgba(107, 144, 128, 1)"></path><path d="M1017.5 351.5L1017.5 314.5L1054.5 277.5L1091.5 277.5" stroke-width="6.17" stroke="rgba(107, 144, 128, 1)"></path><path d="M1008.25 351.5 a9.25 9.25 0 1 0 18.5 0 a9.25 9.25 0 1 0 -18.5 0zM1082.25 277.5 a9.25 9.25 0 1 0 18.5 0 a9.25 9.25 0 1 0 -18.5 0z" fill="rgba(107, 144, 128, 1)"></path><path d="M55.5 203.5L55.5 314.5" stroke-width="6.17" stroke="rgba(107, 144, 128, 1)"></path><path d="M46.25 203.5 a9.25 9.25 0 1 0 18.5 0 a9.25 9.25 0 1 0 -18.5 0zM46.25 314.5 a9.25 9.25 0 1 0 18.5 0 a9.25 9.25 0 1 0 -18.5 0z" fill="rgba(107, 144, 128, 1)"></path><path d="M610.5 351.5L573.5 314.5L536.5 314.5L499.5 351.5L499.5 388.5L536.5 425.5" stroke-width="6.17" stroke="rgba(107, 144, 128, 1)"></path><path d="M601.25 351.5 a9.25 9.25 0 1 0 18.5 0 a9.25 9.25 0 1 0 -18.5 0zM527.25 425.5 a9.25 9.25 0 1 0 18.5 0 a9.25 9.25 0 1 0 -18.5 0z" fill="rgba(107, 144, 128, 1)"></path><path d="M388.5 18.5L425.5 55.5L499.5 55.5" stroke-width="6.17" stroke="rgba(107, 144, 128, 1)"></path><path d="M379.25 18.5 a9.25 9.25 0 1 0 18.5 0 a9.25 9.25 0 1 0 -18.5 0zM490.25 55.5 a9.25 9.25 0 1 0 18.5 0 a9.25 9.25 0 1 0 -18.5 0z" fill="rgba(107, 144, 128, 1)"></path><path d="M1313.5 536.5L1239.5 536.5" stroke-width="6.17" stroke="rgba(107, 144, 128, 1)"></path><path d="M1304.25 536.5 a9.25 9.25 0 1 0 18.5 0 a9.25 9.25 0 1 0 -18.5 0zM1230.25 536.5 a9.25 9.25 0 1 0 18.5 0 a9.25 9.25 0 1 0 -18.5 0z" fill="rgba(107, 144, 128, 1)"></path><path d="M499.5 203.5L499.5 277.5" stroke-width="6.17" stroke="rgba(107, 144, 128, 1)"></path><path d="M490.25 203.5 a9.25 9.25 0 1 0 18.5 0 a9.25 9.25 0 1 0 -18.5 0zM490.25 277.5 a9.25 9.25 0 1 0 18.5 0 a9.25 9.25 0 1 0 -18.5 0z" fill="rgba(107, 144, 128, 1)"></path><path d="M795.5 203.5L758.5 166.5L758.5 129.5" stroke-width="6.17" stroke="rgba(107, 144, 128, 1)"></path><path d="M786.25 203.5 a9.25 9.25 0 1 0 18.5 0 a9.25 9.25 0 1 0 -18.5 0zM749.25 129.5 a9.25 9.25 0 1 0 18.5 0 a9.25 9.25 0 1 0 -18.5 0z" fill="rgba(107, 144, 128, 1)"></path><path d="M277.5 129.5L314.5 92.5L351.5 92.5" stroke-width="6.17" stroke="rgba(107, 144, 128, 1)"></path><path d="M268.25 129.5 a9.25 9.25 0 1 0 18.5 0 a9.25 9.25 0 1 0 -18.5 0zM342.25 92.5 a9.25 9.25 0 1 0 18.5 0 a9.25 9.25 0 1 0 -18.5 0z" fill="rgba(107, 144, 128, 1)"></path><path d="M240.5 55.5L277.5 18.5L314.5 18.5" stroke-width="6.17" stroke="rgba(107, 144, 128, 1)"></path><path d="M231.25 55.5 a9.25 9.25 0 1 0 18.5 0 a9.25 9.25 0 1 0 -18.5 0zM305.25 18.5 a9.25 9.25 0 1 0 18.5 0 a9.25 9.25 0 1 0 -18.5 0z" fill="rgba(107, 144, 128, 1)"></path><path d="M832.5 240.5L869.5 240.5L906.5 277.5" stroke-width="6.17" stroke="rgba(107, 144, 128, 1)"></path><path d="M823.25 240.5 a9.25 9.25 0 1 0 18.5 0 a9.25 9.25 0 1 0 -18.5 0zM897.25 277.5 a9.25 9.25 0 1 0 18.5 0 a9.25 9.25 0 1 0 -18.5 0z" fill="rgba(107, 144, 128, 1)"></path><path d="M684.5 573.5L758.5 573.5" stroke-width="6.17" stroke="rgba(107, 144, 128, 1)"></path><path d="M675.25 573.5 a9.25 9.25 0 1 0 18.5 0 a9.25 9.25 0 1 0 -18.5 0zM749.25 573.5 a9.25 9.25 0 1 0 18.5 0 a9.25 9.25 0 1 0 -18.5 0z" fill="rgba(107, 144, 128, 1)"></path></g></g><defs><mask id="SvgjsMask1579"><rect width="1440" height="560" fill="#ffffff"></rect></mask><linearGradient x1="0%" y1="50%" x2="100%" y2="50%" gradientUnits="userSpaceOnUse" id="SvgjsLinearGradient1580"><stop stop-color="rgba(48, 75, 53, 1)" offset="0.52"></stop><stop stop-color="rgba(107, 144, 128, 1)" offset="0.99"></stop></linearGradient><mask id="SvgjsMask1581"><rect width="1440" height="560" fill="white"></rect><path d="M1345.87 425.5 a4.63 4.63 0 1 0 9.26 0 a4.63 4.63 0 1 0 -9.26 0zM642.87 18.5 a4.63 4.63 0 1 0 9.26 0 a4.63 4.63 0 1 0 -9.26 0z" fill="black"></path><path d="M1345.87 55.5 a4.63 4.63 0 1 0 9.26 0 a4.63 4.63 0 1 0 -9.26 0zM1419.87 573.5 a4.63 4.63 0 1 0 9.26 0 a4.63 4.63 0 1 0 -9.26 0z" fill="black"></path><path d="M457.87 462.5 a4.63 4.63 0 1 0 9.26 0 a4.63 4.63 0 1 0 -9.26 0zM457.87 573.5 a4.63 4.63 0 1 0 9.26 0 a4.63 4.63 0 1 0 -9.26 0z" fill="black"></path><path d="M605.87 499.5 a4.63 4.63 0 1 0 9.26 0 a4.63 4.63 0 1 0 -9.26 0zM1308.87 499.5 a4.63 4.63 0 1 0 9.26 0 a4.63 4.63 0 1 0 -9.26 0z" fill="black"></path><path d="M235.87 240.5 a4.63 4.63 0 1 0 9.26 0 a4.63 4.63 0 1 0 -9.26 0zM938.87 240.5 a4.63 4.63 0 1 0 9.26 0 a4.63 4.63 0 1 0 -9.26 0z" fill="black"></path><path d="M161.87 129.5 a4.63 4.63 0 1 0 9.26 0 a4.63 4.63 0 1 0 -9.26 0zM161.87 573.5 a4.63 4.63 0 1 0 9.26 0 a4.63 4.63 0 1 0 -9.26 0z" fill="black"></path><path d="M87.87 425.5 a4.63 4.63 0 1 0 9.26 0 a4.63 4.63 0 1 0 -9.26 0zM13.87 573.5 a4.63 4.63 0 1 0 9.26 0 a4.63 4.63 0 1 0 -9.26 0z" fill="black"></path><path d="M1234.87 277.5 a4.63 4.63 0 1 0 9.26 0 a4.63 4.63 0 1 0 -9.26 0zM1382.87 388.5 a4.63 4.63 0 1 0 9.26 0 a4.63 4.63 0 1 0 -9.26 0z" fill="black"></path><path d="M864.87 425.5 a4.63 4.63 0 1 0 9.26 0 a4.63 4.63 0 1 0 -9.26 0zM790.87 55.5 a4.63 4.63 0 1 0 9.26 0 a4.63 4.63 0 1 0 -9.26 0z" fill="black"></path><path d="M975.87 425.5 a4.63 4.63 0 1 0 9.26 0 a4.63 4.63 0 1 0 -9.26 0zM420.87 240.5 a4.63 4.63 0 1 0 9.26 0 a4.63 4.63 0 1 0 -9.26 0z" fill="black"></path><path d="M568.87 388.5 a4.63 4.63 0 1 0 9.26 0 a4.63 4.63 0 1 0 -9.26 0zM642.87 129.5 a4.63 4.63 0 1 0 9.26 0 a4.63 4.63 0 1 0 -9.26 0z" fill="black"></path><path d="M383.87 536.5 a4.63 4.63 0 1 0 9.26 0 a4.63 4.63 0 1 0 -9.26 0zM198.87 18.5 a4.63 4.63 0 1 0 9.26 0 a4.63 4.63 0 1 0 -9.26 0z" fill="black"></path><path d="M309.87 536.5 a4.63 4.63 0 1 0 9.26 0 a4.63 4.63 0 1 0 -9.26 0zM383.87 166.5 a4.63 4.63 0 1 0 9.26 0 a4.63 4.63 0 1 0 -9.26 0z" fill="black"></path><path d="M1049.87 536.5 a4.63 4.63 0 1 0 9.26 0 a4.63 4.63 0 1 0 -9.26 0zM1382.87 425.5 a4.63 4.63 0 1 0 9.26 0 a4.63 4.63 0 1 0 -9.26 0z" fill="black"></path><path d="M679.87 536.5 a4.63 4.63 0 1 0 9.26 0 a4.63 4.63 0 1 0 -9.26 0zM494.87 573.5 a4.63 4.63 0 1 0 9.26 0 a4.63 4.63 0 1 0 -9.26 0z" fill="black"></path><path d="M457.87 18.5 a4.63 4.63 0 1 0 9.26 0 a4.63 4.63 0 1 0 -9.26 0zM531.87 55.5 a4.63 4.63 0 1 0 9.26 0 a4.63 4.63 0 1 0 -9.26 0z" fill="black"></path><path d="M1160.87 166.5 a4.63 4.63 0 1 0 9.26 0 a4.63 4.63 0 1 0 -9.26 0zM1012.87 18.5 a4.63 4.63 0 1 0 9.26 0 a4.63 4.63 0 1 0 -9.26 0z" fill="black"></path><path d="M1086.87 314.5 a4.63 4.63 0 1 0 9.26 0 a4.63 4.63 0 1 0 -9.26 0zM938.87 388.5 a4.63 4.63 0 1 0 9.26 0 a4.63 4.63 0 1 0 -9.26 0z" fill="black"></path><path d="M790.87 573.5 a4.63 4.63 0 1 0 9.26 0 a4.63 4.63 0 1 0 -9.26 0zM1123.87 573.5 a4.63 4.63 0 1 0 9.26 0 a4.63 4.63 0 1 0 -9.26 0z" fill="black"></path><path d="M605.87 203.5 a4.63 4.63 0 1 0 9.26 0 a4.63 4.63 0 1 0 -9.26 0zM605.87 129.5 a4.63 4.63 0 1 0 9.26 0 a4.63 4.63 0 1 0 -9.26 0z" fill="black"></path><path d="M13.87 351.5 a4.63 4.63 0 1 0 9.26 0 a4.63 4.63 0 1 0 -9.26 0zM124.87 388.5 a4.63 4.63 0 1 0 9.26 0 a4.63 4.63 0 1 0 -9.26 0z" fill="black"></path><path d="M1345.87 166.5 a4.63 4.63 0 1 0 9.26 0 a4.63 4.63 0 1 0 -9.26 0zM1049.87 18.5 a4.63 4.63 0 1 0 9.26 0 a4.63 4.63 0 1 0 -9.26 0z" fill="black"></path><path d="M1123.87 92.5 a4.63 4.63 0 1 0 9.26 0 a4.63 4.63 0 1 0 -9.26 0zM1382.87 203.5 a4.63 4.63 0 1 0 9.26 0 a4.63 4.63 0 1 0 -9.26 0z" fill="black"></path><path d="M235.87 425.5 a4.63 4.63 0 1 0 9.26 0 a4.63 4.63 0 1 0 -9.26 0zM346.87 351.5 a4.63 4.63 0 1 0 9.26 0 a4.63 4.63 0 1 0 -9.26 0z" fill="black"></path><path d="M531.87 203.5 a4.63 4.63 0 1 0 9.26 0 a4.63 4.63 0 1 0 -9.26 0zM457.87 129.5 a4.63 4.63 0 1 0 9.26 0 a4.63 4.63 0 1 0 -9.26 0z" fill="black"></path><path d="M50.87 536.5 a4.63 4.63 0 1 0 9.26 0 a4.63 4.63 0 1 0 -9.26 0zM124.87 425.5 a4.63 4.63 0 1 0 9.26 0 a4.63 4.63 0 1 0 -9.26 0z" fill="black"></path><path d="M124.87 277.5 a4.63 4.63 0 1 0 9.26 0 a4.63 4.63 0 1 0 -9.26 0zM124.87 18.5 a4.63 4.63 0 1 0 9.26 0 a4.63 4.63 0 1 0 -9.26 0z" fill="black"></path><path d="M1382.87 277.5 a4.63 4.63 0 1 0 9.26 0 a4.63 4.63 0 1 0 -9.26 0zM1049.87 55.5 a4.63 4.63 0 1 0 9.26 0 a4.63 4.63 0 1 0 -9.26 0z" fill="black"></path><path d="M753.87 203.5 a4.63 4.63 0 1 0 9.26 0 a4.63 4.63 0 1 0 -9.26 0zM864.87 351.5 a4.63 4.63 0 1 0 9.26 0 a4.63 4.63 0 1 0 -9.26 0z" fill="black"></path><path d="M1160.87 425.5 a4.63 4.63 0 1 0 9.26 0 a4.63 4.63 0 1 0 -9.26 0zM1123.87 314.5 a4.63 4.63 0 1 0 9.26 0 a4.63 4.63 0 1 0 -9.26 0z" fill="black"></path><path d="M494.87 425.5 a4.63 4.63 0 1 0 9.26 0 a4.63 4.63 0 1 0 -9.26 0zM420.87 203.5 a4.63 4.63 0 1 0 9.26 0 a4.63 4.63 0 1 0 -9.26 0z" fill="black"></path><path d="M494.87 314.5 a4.63 4.63 0 1 0 9.26 0 a4.63 4.63 0 1 0 -9.26 0zM827.87 351.5 a4.63 4.63 0 1 0 9.26 0 a4.63 4.63 0 1 0 -9.26 0z" fill="black"></path><path d="M605.87 55.5 a4.63 4.63 0 1 0 9.26 0 a4.63 4.63 0 1 0 -9.26 0zM531.87 18.5 a4.63 4.63 0 1 0 9.26 0 a4.63 4.63 0 1 0 -9.26 0z" fill="black"></path><path d="M420.87 462.5 a4.63 4.63 0 1 0 9.26 0 a4.63 4.63 0 1 0 -9.26 0zM346.87 536.5 a4.63 4.63 0 1 0 9.26 0 a4.63 4.63 0 1 0 -9.26 0z" fill="black"></path><path d="M50.87 573.5 a4.63 4.63 0 1 0 9.26 0 a4.63 4.63 0 1 0 -9.26 0zM124.87 462.5 a4.63 4.63 0 1 0 9.26 0 a4.63 4.63 0 1 0 -9.26 0z" fill="black"></path><path d="M494.87 499.5 a4.63 4.63 0 1 0 9.26 0 a4.63 4.63 0 1 0 -9.26 0zM642.87 536.5 a4.63 4.63 0 1 0 9.26 0 a4.63 4.63 0 1 0 -9.26 0z" fill="black"></path><path d="M1086.87 203.5 a4.63 4.63 0 1 0 9.26 0 a4.63 4.63 0 1 0 -9.26 0zM1382.87 351.5 a4.63 4.63 0 1 0 9.26 0 a4.63 4.63 0 1 0 -9.26 0z" fill="black"></path><path d="M568.87 425.5 a4.63 4.63 0 1 0 9.26 0 a4.63 4.63 0 1 0 -9.26 0zM827.87 425.5 a4.63 4.63 0 1 0 9.26 0 a4.63 4.63 0 1 0 -9.26 0z" fill="black"></path><path d="M901.87 462.5 a4.63 4.63 0 1 0 9.26 0 a4.63 4.63 0 1 0 -9.26 0zM1345.87 462.5 a4.63 4.63 0 1 0 9.26 0 a4.63 4.63 0 1 0 -9.26 0z" fill="black"></path><path d="M1012.87 573.5 a4.63 4.63 0 1 0 9.26 0 a4.63 4.63 0 1 0 -9.26 0zM827.87 573.5 a4.63 4.63 0 1 0 9.26 0 a4.63 4.63 0 1 0 -9.26 0z" fill="black"></path><path d="M642.87 351.5 a4.63 4.63 0 1 0 9.26 0 a4.63 4.63 0 1 0 -9.26 0zM790.87 351.5 a4.63 4.63 0 1 0 9.26 0 a4.63 4.63 0 1 0 -9.26 0z" fill="black"></path><path d="M1308.87 55.5 a4.63 4.63 0 1 0 9.26 0 a4.63 4.63 0 1 0 -9.26 0zM1382.87 166.5 a4.63 4.63 0 1 0 9.26 0 a4.63 4.63 0 1 0 -9.26 0z" fill="black"></path><path d="M1382.87 18.5 a4.63 4.63 0 1 0 9.26 0 a4.63 4.63 0 1 0 -9.26 0zM1234.87 18.5 a4.63 4.63 0 1 0 9.26 0 a4.63 4.63 0 1 0 -9.26 0z" fill="black"></path><path d="M124.87 314.5 a4.63 4.63 0 1 0 9.26 0 a4.63 4.63 0 1 0 -9.26 0zM13.87 18.5 a4.63 4.63 0 1 0 9.26 0 a4.63 4.63 0 1 0 -9.26 0z" fill="black"></path><path d="M1012.87 425.5 a4.63 4.63 0 1 0 9.26 0 a4.63 4.63 0 1 0 -9.26 0zM1123.87 351.5 a4.63 4.63 0 1 0 9.26 0 a4.63 4.63 0 1 0 -9.26 0z" fill="black"></path><path d="M235.87 277.5 a4.63 4.63 0 1 0 9.26 0 a4.63 4.63 0 1 0 -9.26 0zM346.87 277.5 a4.63 4.63 0 1 0 9.26 0 a4.63 4.63 0 1 0 -9.26 0z" fill="black"></path><path d="M1123.87 388.5 a4.63 4.63 0 1 0 9.26 0 a4.63 4.63 0 1 0 -9.26 0zM1049.87 425.5 a4.63 4.63 0 1 0 9.26 0 a4.63 4.63 0 1 0 -9.26 0z" fill="black"></path><path d="M1271.87 240.5 a4.63 4.63 0 1 0 9.26 0 a4.63 4.63 0 1 0 -9.26 0zM1123.87 240.5 a4.63 4.63 0 1 0 9.26 0 a4.63 4.63 0 1 0 -9.26 0z" fill="black"></path><path d="M975.87 18.5 a4.63 4.63 0 1 0 9.26 0 a4.63 4.63 0 1 0 -9.26 0zM975.87 92.5 a4.63 4.63 0 1 0 9.26 0 a4.63 4.63 0 1 0 -9.26 0z" fill="black"></path><path d="M790.87 314.5 a4.63 4.63 0 1 0 9.26 0 a4.63 4.63 0 1 0 -9.26 0zM716.87 314.5 a4.63 4.63 0 1 0 9.26 0 a4.63 4.63 0 1 0 -9.26 0z" fill="black"></path><path d="M1345.87 314.5 a4.63 4.63 0 1 0 9.26 0 a4.63 4.63 0 1 0 -9.26 0zM1271.87 277.5 a4.63 4.63 0 1 0 9.26 0 a4.63 4.63 0 1 0 -9.26 0z" fill="black"></path><path d="M346.87 18.5 a4.63 4.63 0 1 0 9.26 0 a4.63 4.63 0 1 0 -9.26 0zM235.87 203.5 a4.63 4.63 0 1 0 9.26 0 a4.63 4.63 0 1 0 -9.26 0z" fill="black"></path><path d="M87.87 166.5 a4.63 4.63 0 1 0 9.26 0 a4.63 4.63 0 1 0 -9.26 0zM87.87 18.5 a4.63 4.63 0 1 0 9.26 0 a4.63 4.63 0 1 0 -9.26 0z" fill="black"></path><path d="M1012.87 351.5 a4.63 4.63 0 1 0 9.26 0 a4.63 4.63 0 1 0 -9.26 0zM1086.87 277.5 a4.63 4.63 0 1 0 9.26 0 a4.63 4.63 0 1 0 -9.26 0z" fill="black"></path><path d="M50.87 203.5 a4.63 4.63 0 1 0 9.26 0 a4.63 4.63 0 1 0 -9.26 0zM50.87 314.5 a4.63 4.63 0 1 0 9.26 0 a4.63 4.63 0 1 0 -9.26 0z" fill="black"></path><path d="M605.87 351.5 a4.63 4.63 0 1 0 9.26 0 a4.63 4.63 0 1 0 -9.26 0zM531.87 425.5 a4.63 4.63 0 1 0 9.26 0 a4.63 4.63 0 1 0 -9.26 0z" fill="black"></path><path d="M383.87 18.5 a4.63 4.63 0 1 0 9.26 0 a4.63 4.63 0 1 0 -9.26 0zM494.87 55.5 a4.63 4.63 0 1 0 9.26 0 a4.63 4.63 0 1 0 -9.26 0z" fill="black"></path><path d="M1308.87 536.5 a4.63 4.63 0 1 0 9.26 0 a4.63 4.63 0 1 0 -9.26 0zM1234.87 536.5 a4.63 4.63 0 1 0 9.26 0 a4.63 4.63 0 1 0 -9.26 0z" fill="black"></path><path d="M494.87 203.5 a4.63 4.63 0 1 0 9.26 0 a4.63 4.63 0 1 0 -9.26 0zM494.87 277.5 a4.63 4.63 0 1 0 9.26 0 a4.63 4.63 0 1 0 -9.26 0z" fill="black"></path><path d="M790.87 203.5 a4.63 4.63 0 1 0 9.26 0 a4.63 4.63 0 1 0 -9.26 0zM753.87 129.5 a4.63 4.63 0 1 0 9.26 0 a4.63 4.63 0 1 0 -9.26 0z" fill="black"></path><path d="M272.87 129.5 a4.63 4.63 0 1 0 9.26 0 a4.63 4.63 0 1 0 -9.26 0zM346.87 92.5 a4.63 4.63 0 1 0 9.26 0 a4.63 4.63 0 1 0 -9.26 0z" fill="black"></path><path d="M235.87 55.5 a4.63 4.63 0 1 0 9.26 0 a4.63 4.63 0 1 0 -9.26 0zM309.87 18.5 a4.63 4.63 0 1 0 9.26 0 a4.63 4.63 0 1 0 -9.26 0z" fill="black"></path><path d="M827.87 240.5 a4.63 4.63 0 1 0 9.26 0 a4.63 4.63 0 1 0 -9.26 0zM901.87 277.5 a4.63 4.63 0 1 0 9.26 0 a4.63 4.63 0 1 0 -9.26 0z" fill="black"></path><path d="M679.87 573.5 a4.63 4.63 0 1 0 9.26 0 a4.63 4.63 0 1 0 -9.26 0zM753.87 573.5 a4.63 4.63 0 1 0 9.26 0 a4.63 4.63 0 1 0 -9.26 0z" fill="black"></path></mask></defs></svg>